/* XPM */ 
static const unsigned char * overture_xpm[] = {
"32 32 11 1",
" 	c None",
"!	c black",
"#	c white",
"$	c #C0C0C0",
"%	c #808080",
"&	c #000080",
"'	c #008000",
"(	c #800080",
")	c #008080",
"*	c #808000",
"+	c #800000",
" ####$#$#$#$#$##$##$########### ",
" ##$%%%%%%%$%%$%$%$$%$%$$$$$### ",
" #$%%%%%%%%%%%$%%%$%$$$$$%$$$## ",
" $%!%%%%%$$##$$$%%$%%%%$$$$$$$# ",
" %%%%%!%$#$#$###$%$%$$$$%$$$$$# ",
" %%!%%%$#$$%%%$##$%%%%%$%$%$$$$ ",
" %%!%%%#$%%%%%%%##%%$%$$%$$$$$$ ",
" %%%!%$#%%%%%%%%$#$%$%%%$%$%$$$ ",
" %!%!%#$%%&%%%%%%#$%%%$%$%$%$$$ ",
" %'()%#$*%*%&%%%%#$$%%%%$%$%$$$ ",
" %(%*%$$%&%)%*%%%#$%%%$%$%$%$%$ ",
" '%!&%#$%%+%()%%%#$%%%%%%%$%$$$ ",
" %('(*%#$%!%)%%%$#%%$###$$%%$%$ ",
" )('()%$$$(%*(%$##%$##$##$$%%$$ ",
" %!*&*&%$#$$%$$#####$%%%$#$%$%$ ",
" %&*&*!%%$#####$%%##$%%%%#$%$%$ ",
" %!!%!%('()%%#$%%%%#$%%%%#$%%%$ ",
" %!!%!'('%+)%$$)%%%#$%%%$#$%$%$ ",
" %!!%!('('()%$#$%%$##$$$#$%%%%$ ",
" %!!!!'('(*$####$$#$$###$$%%%%$ ",
" +!!%!%!&*##%%%$##$%%%%%%%%%%%$ ",
" %!!&!!*&%#%(%+%$#%!%&%%)%%%%%$ ",
" )!!'+)+)$$%!%'&%$$%%%*%(%%%%%$ ",
" (!!!!!!%$$+)+%!%$$!%&%'%()%%%$ ",
" '!!!(!!%$$)!%!%%$$%%%*(%%*%%%% ",
" %!!!'!!!$$%!('&%#$&*&%'()%&%%$ ",
" !!!!!!(!%##%%'%##%!%)*(%%*%%%% ",
" %!!!!!!!!%$#$##$%!%+)%!%&%!%%$ ",
" $!!!!!'!!+)%$$%('%('(%!%%*%%%# ",
" #%(!!!!!!!+!!+)+!)+)+)%!%&%%## ",
" ###%'(%&%'()%%)+%%%%%%%%%%%### ",
" ####$$#$$#$$$$#$$$$$$$$#$##### "};