/* XPM */ 
static const unsigned char * overture3_xpm[] = {
"32 32 150 2",
"  	c None",
"! 	c black",
"# 	c #FDFDFD",
"$ 	c #EFEFF0",
"% 	c #E1E1E1",
"& 	c #DDDDDD",
"' 	c #DFDFE0",
"( 	c #DFE0E0",
") 	c #E3E3E4",
"* 	c #E5E5E5",
"+ 	c #E7E7E8",
", 	c #E9E9E9",
"- 	c #EBEBEC",
". 	c #EBECEC",
"0 	c #EDEDED",
"1 	c #F3F3F4",
"2 	c #F9F9F9",
"3 	c white",
"4 	c #CBCBCC",
"5 	c #909092",
"6 	c #808183",
"7 	c #818284",
"8 	c #838486",
"9 	c #878889",
": 	c #8B8C8D",
"; 	c #8D8E90",
"< 	c #949596",
"= 	c #979899",
"> 	c #9B9C9D",
"? 	c #9E9FA0",
"@ 	c #A1A2A4",
"A 	c #A5A6A8",
"B 	c #A8A9AA",
"C 	c #ABACAD",
"D 	c #AFB0B1",
"E 	c #B2B2B4",
"F 	c #B7B8B9",
"G 	c #BABABC",
"H 	c #BDBEC0",
"I 	c #C0C1C2",
"J 	c #C9CACA",
"K 	c #D7D7D8",
"L 	c #F5F5F5",
"M 	c #FBFBFC",
"N 	c #A4A4A6",
"O 	c #696A6C",
"P 	c #68686A",
"Q 	c #6B6C6E",
"R 	c #6F7071",
"S 	c #727274",
"T 	c #77787A",
"U 	c #797A7C",
"V 	c #8C8C8E",
"W 	c #939496",
"X 	c #8F9092",
"Y 	c #A3A4A6",
"Z 	c #AAABAC",
"[ 	c #AEAEB0",
"] 	c #B3B4B5",
"^ 	c #B6B7B8",
"_ 	c #D5D5D6",
"` 	c #656668",
"a 	c #616264",
"b 	c #6D6E70",
"c 	c #959698",
"d 	c #C7C8C9",
"e 	c #C2C2C4",
"f 	c #9FA0A1",
"g 	c #929294",
"h 	c #98999B",
"i 	c #9D9D9F",
"j 	c #BBBCBD",
"k 	c #CECFD0",
"l 	c #5B5C5E",
"m 	c #5D5E60",
"n 	c #C6C6C8",
"o 	c #F7F8F8",
"p 	c #F7F8F7",
"q 	c #A7A8AA",
"r 	c #7C7C7E",
"s 	c #58585A",
"t 	c #B9B9BA",
"u 	c #898A8C",
"v 	c #757678",
"w 	c #565658",
"x 	c #707072",
"y 	c #747476",
"z 	c #7F8082",
"{ 	c #F2F2F2",
"| 	c #B4B4B6",
"} 	c #D6D8D8",
"~ 	c #505052",
" !	c #D1D1D1",
"!!	c #88898A",
"#!	c #6C6C6E",
"$!	c #737476",
"%!	c #7E7E80",
"&!	c #B1B1B2",
"'!	c #4E4E50",
"(!	c #525254",
")!	c #545456",
"*!	c #646466",
"+!	c #7B7C7E",
",!	c #ACADAE",
"-!	c #D2D4D4",
".!	c #4C4C4E",
"0!	c #5F6062",
"1!	c #D9D9DA",
"2!	c #48484A",
"3!	c #848486",
"4!	c #868688",
"5!	c #464648",
"6!	c #4C4B4E",
"7!	c #5C5C5E",
"8!	c #CDCDCD",
"9!	c #424144",
":!	c #DBDBDC",
";!	c #F7F7F8",
"<!	c #616162",
"=!	c #3C3C3E",
">!	c #353536",
"?!	c #3A3A3C",
"@!	c #5A5A5C",
"A!	c #303032",
"B!	c #BCBDBD",
"C!	c #9A9A9C",
"D!	c #C5C5C6",
"E!	c #2A2A2C",
"F!	c #363638",
"G!	c #262628",
"H!	c #323234",
"I!	c #4A4A4C",
"J!	c #222224",
"K!	c #1C1C1E",
"L!	c #444446",
"M!	c #181819",
"N!	c #212123",
"O!	c #252527",
"P!	c #2E2D2F",
"Q!	c #A1A1A2",
"R!	c #141415",
"S!	c #404042",
"T!	c #101011",
"U!	c #131314",
"V!	c #0C0C0C",
"W!	c #39393A",
"X!	c #0A0A0A",
"Y!	c #050505",
"Z!	c #1B1B1C",
"[!	c #2E2E30",
"  # # # $ % & ' ( % % ) ) ) * * + + + , , - . 0 0 $ 1 2 # # #   ",
"  3 2 4 5 6 7 8 9 : ; 5 < = > ? @ A B C D E F G H I J K L # #   ",
"  M N O P Q R S T U 7 V 5 W ; X W = > ? Y A Z [ ] ^ G H J 0 3   ",
"  _ ` a ` O b R T c d & ( & e f g W h i f Y A C D ] F j H k M   ",
"  5 l m a ` P T n o L * ' , 2 p G < W h > f Y q C D ] F j H -   ",
"  r s l m a b t M ) ? u 9 W G $ L t g c h > f Y q C D ] F G &   ",
"  v w s l m > L k r x y v U z < { L h X W h > f Y q C D | F }   ",
"  y ~ w s l  !2 !!O #!x $!T U %!H # j ; g W h > f Y q C &!| _   ",
"  x '!(!)!*!{ K a ` O Q R $!v +!c - K V ; 5 W h i @ Y q ,!D -!  ",
"  x .!'!~ x 2 n 0!a ` O b x $!v : ) 1!u u ; g W h i f Y q ,! !  ",
"  #!2!.!'!` L k l m a ` O #!x $!V * K 3!4!u ; 5 c h > @ Y q k   ",
"  O 5!2!6!(!* , *!7!0!a ` O b R > 1 d 7 7 u = c g c h i f Y 8!  ",
"  *!9!5!2!6!A 2 C 0!7!m a ` O T :!2 c z G + ;!{  !Y c h > @ J   ",
"  <!=!9!5!2!#!:!0 @ m l 0!*!T I # 0 : &!o 0 8!& M ( = c h i d   ",
"  7!>!?!9!5!2!R % # & D i G 0 # 1 ;!;!o K : z 8 e 2 j 5 c h n   ",
"  @!A!>!=!9!5!2!S B!M 3 3 3 #  !; C!. 3 Z T +!%!= -  !X g c D!  ",
"  )!E!A!F!?!9!5!2!6!7!%!5 :!' v *!` f M ,!$!T +!W , k V ; 5 e   ",
"  (!G!E!H!>!=!9!5!I!.!'!s 4 K b 0!*!< o -!z $!T t o ^ 9 u ; I   ",
"  .!J!G!E!A!F!?!9!5!I!w r 8!;!Z #!v _ o o + I -!2 & 4!7 4!u B!  ",
"  I!K!J!G!E!H!F!=!9!*!F 0 2 3 L _ ' 2 e E + ;!1 4 g +!%!8 9 j   ",
"  L!M!K!N!O!P!A!F!)!% { E 9 5 e o M Q!P *!b %!U S $!T +!z 7 G   ",
"  L!R!M!K!N!G!E!F!= L ? '!2!.!@!G M 5 m 0!a ` Q b x v T +!z F   ",
"  S!T!U!M!K!J!O!L! !n '!9!5!2!.!#!' n 0!7!m *!P Q b x $!T +!|   ",
"  =!V!T!R!M!K!J!I!:!B W!=!9!5!I!s 4 -!a @!7!0!a P Q b x v T ]   ",
"  =!X!V!T!R!M!K!9!_ G =!F!=!9!5!0!K 4 7!w s 7!0!*!P O b S $!&!  ",
"  W!Y!X!V!T!R!M!E!| * <!H!F!=!9!9 1 q ~ (!w @!7!0!a P Q b x D   ",
"  =!Y!Y!V!V!T!R!M!'!- ) S (!@!!!1 ) @!6!~ (!w s 7!0!*!` Q b G   ",
"  *!! Y!Y!V!V!T!R!K!z + $ :!' L % %!5!I!'!~ )!w @!7!0!*!P Q K   ",
"   !M!! Y!Y!X!V!T!R!Z!S!W E &!5 I!=!9!5!I!.!~ (!w @!7!0!` W #   ",
"  # 5 M!! Y!Y!V!V!T!R!M!N!P!H![!H!W!=!9!2!I!'!~ )!w @!m 3!' #   ",
"  3 M k <!?!>!>!W!?!=!S!L!2!.!'!)!s m a ` P Q b x y 3!C 1 3 3   ",
"  3 3 # L ( 1!:!1!:!:!& & & ' & ' % % % % ) ) * * * $ M 3 3 #   "};