/* XPM */ 
static const unsigned char * overture12_xpm[] = {
"32 32 163 2",
"  	c None",
"! 	c black",
"# 	c #525252",
"$ 	c #565656",
"% 	c #595959",
"& 	c #5C5C5C",
"' 	c #5F5F5F",
"( 	c #636363",
") 	c #676767",
"* 	c #6A6A6A",
"+ 	c #6D6D6D",
", 	c #707070",
"- 	c #737373",
". 	c #767676",
"0 	c #797979",
"1 	c #7C7C7C",
"2 	c #808080",
"3 	c #838383",
"4 	c #868686",
"5 	c #898989",
"6 	c #8C8C8C",
"7 	c #8F8F8F",
"8 	c #929292",
"9 	c #959595",
": 	c #999999",
"; 	c #9C9C9C",
"< 	c #9F9F9F",
"= 	c #4D4D4D",
"> 	c #505050",
"? 	c #535353",
"@ 	c #5D5D5D",
"A 	c #606060",
"B 	c #646464",
"C 	c #717171",
"D 	c #747474",
"E 	c #777777",
"F 	c #7A7A7A",
"G 	c #7D7D7D",
"H 	c #8D8D8D",
"I 	c #909090",
"J 	c #939393",
"K 	c #969696",
"L 	c #A2A2A2",
"M 	c #474747",
"N 	c #4A4A4A",
"O 	c #515151",
"P 	c #545454",
"Q 	c #575757",
"R 	c #5A5A5A",
"S 	c #616161",
"T 	c #848484",
"U 	c #7B7B7B",
"V 	c #818181",
"W 	c #878787",
"X 	c #8A8A8A",
"Y 	c #9A9A9A",
"Z 	c #9D9D9D",
"[ 	c #A0A0A0",
"] 	c #A3A3A3",
"^ 	c #424242",
"_ 	c #454545",
"` 	c #484848",
"a 	c #4B4B4B",
"b 	c #4E4E4E",
"c 	c #787878",
"d 	c #7E7E7E",
"e 	c #8E8E8E",
"f 	c #919191",
"g 	c #949494",
"h 	c #979797",
"i 	c #3F3F3F",
"j 	c #6E6E6E",
"k 	c #757575",
"l 	c #7F7F7F",
"m 	c #858585",
"n 	c #888888",
"o 	c #8B8B8B",
"p 	c #9B9B9B",
"q 	c #9E9E9E",
"r 	c #A1A1A1",
"s 	c #3C3C3C",
"t 	c #464646",
"u 	c #494949",
"v 	c #4C4C4C",
"w 	c #5B5B5B",
"x 	c #5E5E5E",
"y 	c #626262",
"z 	c #666666",
"{ 	c #696969",
"| 	c #828282",
"} 	c #989898",
"~ 	c #3A3A3A",
" !	c #3D3D3D",
"!!	c #404040",
"#!	c #434343",
"$!	c #555555",
"%!	c #373737",
"&!	c #343434",
"'!	c #383838",
"(!	c #3B3B3B",
")!	c #3E3E3E",
"*!	c #414141",
"+!	c #323232",
",!	c #353535",
"-!	c #656565",
".!	c #2F2F2F",
"0!	c #585858",
"1!	c #6F6F6F",
"2!	c #727272",
"3!	c #2C2C2C",
"4!	c #333333",
"5!	c #363636",
"6!	c #393939",
"7!	c #4F4F4F",
"8!	c #6C6C6C",
"9!	c #2A2A2A",
":!	c #2D2D2D",
";!	c #303030",
"<!	c #444444",
"=!	c #272727",
">!	c #242424",
"?!	c #2B2B2B",
"@!	c #2E2E2E",
"A!	c #313131",
"B!	c #222222",
"C!	c #252525",
"D!	c #282828",
"E!	c #6B6B6B",
"F!	c #686868",
"G!	c #1F1F1F",
"H!	c #1C1C1C",
"I!	c #202020",
"J!	c #232323",
"K!	c #262626",
"L!	c #292929",
"M!	c #1A1A1A",
"N!	c #1D1D1D",
"O!	c #171717",
"P!	c #212121",
"Q!	c #151515",
"R!	c #181818",
"S!	c #1B1B1B",
"T!	c #1E1E1E",
"U!	c #121212",
"V!	c #101010",
"W!	c #131313",
"X!	c #161616",
"Y!	c #191919",
"Z!	c #0E0E0E",
"[!	c #111111",
"]!	c #0B0B0B",
"^!	c #141414",
"_!	c #090909",
"`!	c #0C0C0C",
"a!	c #0F0F0F",
"b!	c #060606",
"c!	c #050505",
"d!	c #0A0A0A",
"e!	c #0D0D0D",
"f!	c #040404",
"g!	c #070707",
"h!	c #030303",
"i!	c #080808",
"      # $ % & ' ( ) * + , - . 0 1 2 3 4 5 6 7 8 9 : ; <         ",
"    = > ? $ % @ A B ) * + C D E F G 2 3 4 5 H I J K : ; < L     ",
"  M N = O P Q R @ S .     T U D E F G V T W X H I J K Y Z [ ]   ",
"^ _ ` a b O P Q -               2 c U d V T W X e f g h Y Z [   ",
"i ^ _ ` a b #       c , j k       l c U d V m n o e f g h p q r ",
"s i ^ t u v       & w x y z { G     0 0 1 l | m n o 7 8 9 } p q ",
"~  !!!#!t =     $!$ % & ' ( z * G     . 0 1 l 3 4 5 6 7 8 9 } ; ",
"%!~  !!!#!@   w > ? $ % & ' ( ) *     - E F G 2 3 4 5 6 I J K : ",
"&!'!(!)!*!    v = > P Q R @ A B )     E D E F G V T W X H I J K ",
"+!,!'!(!)!    ` a b O P Q R @ S -!    C C k c U d V T W X H f g ",
".!+!,!'!s     a ` a b O $!0!w x S     1!1!2!k c U d V m n o e f ",
"3!.!4!5!6!`   0!_ u v 7!# $!0!w '     { 8!1!E . F 1 l | m n o e ",
"9!:!;!4!5!)!    <!t u v 7!# $!%     0 z +           2 l | 4 5 6 ",
"=!9!:!;!&!%!7!    > M N = > ? j     8!)               G 2 3 4 5 ",
">!=!?!@!A!&!%!B       $!$!                0 * j C     6 G 2 T W ",
"B!C!D!?!@!A!,!'!>               E!-!      -!F!E!j 2!    U d V T ",
"G!B!C!D!3!.!+!,!'!(!a > b     0!O P %     S -!F!8!1!    c U d V ",
"H!I!J!K!L!3!.!+!5!6!s i ^     v 7!# $!    E!y z { E     k c 1 l ",
"M!N!I!J!K!9!3!;!4!5!6! !!!    % v 7!Q       j { -     D - . 0 1 ",
"O!M!N!P!>!=!9!:!;!&!'!$!                            E + , - . F ",
"Q!R!S!T!P!>!=!9!@!,!                  z ? R z B { z ) * j C D E ",
"U!Q!R!S!G!B!C!D!?!      ~ (!)!<!      = O P Q R @ A B F!E!j C D ",
"V!W!X!Y!H!G!B!C!&!    +!,!'!(!i <!    a b O P Q w x S -!F!E!1!2!",
"Z![!W!X!Y!H!I!J!,!  <!.!+!5!6!s i     > a 7!# $!0!w x y z { 8!1!",
"]!Z![!^!O!M!N!I!L!  (!3!;!4!5!6!s *!  u u v 7!# $!0!& ' y z { 8!",
"_!`!a![!^!O!M!N!'!    9!:!;!4!%!~     u t u v > ? $ % & ' ( ) * ",
"b!_!`!a!U!Q!R!S!T!    4!9!:!A!&!=     *!<!M N = > ? $ % @ A B ) ",
"c!b!d!e!V!U!Q!R!S!&!    t .!5!?     N )!*!<!M N = O P Q R @ A B ",
"c!f!g!d!e!V!U!Q!Y!H!!!            *!'!(!)!^ _ ` a b O P Q R x   ",
"  h!f!g!]!Z![!W!X!Y!H!D!*!    )!&!+!,!6!s i ^ _ ` a b # $!0!w   ",
"    h!c!i!]!Z![!W!X!M!N!I!J!K!L!3!;!4!5!6!s i #!t u v 7!# $!    ",
"      g!g!_!`!a![!^!O!M!N!I!>!=!9!:!;!4!%!~  !!!#!t N ? '       "};