<?xml version="1.0"?>
<!DOCTYPE svg PUBLIC "-//W3C//DTD SVG 1.1//EN" "http://www.w3.org/Graphics/SVG/1.1/DTD/svg11.dtd">
<svg xmlns="http://www.w3.org/2000/svg" xmlns:xl="http://www.w3.org/1999/xlink" version="1.1" viewBox="54 139 423 423" width="423pt" height="423pt"><metadata xmlns:dc="http://purl.org/dc/elements/1.1/"><dc:date>2013-03-04 09:17Z</dc:date><!-- Produced by OmniGraffle Professional 5.4.2 --></metadata><defs><linearGradient x1="0" x2="1" id="Gradient" gradientUnits="userSpaceOnUse"><stop offset="0" stop-color="#5c0067"/><stop offset="1" stop-color="#289da9"/></linearGradient><linearGradient id="Obj_Gradient" xl:href="#Gradient" gradientTransform="translate(499.02517 174.55311) rotate(143) scale(584.82815)"/></defs><g stroke="none" stroke-opacity="1" stroke-dasharray="none" fill="none" fill-opacity="1"><title>Circle cutouts</title><rect fill="white" width="559" height="783"/><g><title>Layer 2</title><path d="M 56.692912 486.3323 L 56.692912 486.3323 C 56.69292 526.64908 89.37613 559.3323 129.69291 559.3323 L 401.2929 559.3323 C 441.6097 559.3323 474.2929 526.64908 474.2929 486.3323 L 474.2929 214.73228 C 474.2929 174.4155 441.6097 141.732285 401.2929 141.732285 L 129.69291 141.732285 C 129.69291 141.732285 129.69291 141.732285 129.69291 141.732285 C 89.37612 141.732285 56.692905 174.4155 56.692912 214.73231 L 56.692912 486.33227 C 56.692912 486.33228 56.692912 486.33228 56.692912 486.3323 Z M 295.2999 321.33556 L 295.2999 321.33556 C 302.38382 323.17425 309.14957 326.55838 315.06235 331.48796 C 317.79265 325.47814 321.62922 319.84798 326.57206 314.90517 C 348.65665 292.82046 384.46282 292.82046 406.54742 314.90517 C 428.63212 336.98976 428.63212 372.79593 406.54742 394.88053 C 384.6387 416.78936 349.22606 416.96383 327.10226 395.40393 C 324.84184 399.48963 321.9783 403.33099 318.51165 406.79762 C 312.47336 412.83593 305.29818 417.04442 297.67513 419.42306 C 317.96609 446.82975 315.69183 485.68925 290.85234 510.5286 C 263.5095 537.87158 219.17806 537.87158 191.83523 510.5286 C 164.49226 483.18578 164.49226 438.85433 191.83523 411.5115 C 204.0697 399.27696 219.70546 392.51673 235.6987 391.23082 C 230.9557 380.41746 230.14576 368.29486 233.26887 357.03435 C 206.79051 360.08797 179.2209 351.45917 158.90977 331.14794 C 123.59638 295.83472 123.59638 238.58074 158.90977 203.26753 C 194.22298 167.95414 251.47697 167.95414 286.79018 203.26753 C 318.993 235.47019 321.82958 285.91856 295.2999 321.33556 Z M 275.21806 427.14578 C 256.50981 408.43743 226.17776 408.43743 207.46951 427.14578 C 188.76116 445.85403 188.76116 476.18607 207.46951 494.89433 C 226.17776 513.60268 256.50981 513.60268 275.21806 494.89433 C 293.92641 476.18607 293.92641 445.85403 275.21806 427.14578 M 391.01334 330.43923 C 377.50798 316.9338 355.61147 316.9338 342.1061 330.43923 C 328.60067 343.9446 328.60067 365.8411 342.1061 379.34646 C 355.61147 392.8519 377.50798 392.8519 391.01334 379.34646 C 404.51878 365.8411 404.51878 343.9446 391.01334 330.43923 M 302.69484 350.27368 C 291.40347 338.98225 273.09655 338.98225 261.80518 350.27368 C 250.51375 361.56505 250.51375 379.87196 261.80518 391.16333 C 273.09655 402.45476 291.40347 402.45476 302.69484 391.16333 C 313.98627 379.87196 313.98627 361.56505 302.69484 350.27368 M 271.1559 218.90181 C 244.47726 192.22304 201.22268 192.22304 174.54405 218.90181 C 147.86528 245.58045 147.86528 288.83502 174.54405 315.51365 C 201.22268 342.19242 244.47726 342.19242 271.1559 315.51365 C 297.83466 288.83502 297.83466 245.58045 271.1559 218.90181" fill="url(#Obj_Gradient)"/><path d="M 56.692912 486.3323 L 56.692912 486.3323 C 56.69292 526.64908 89.37613 559.3323 129.69291 559.3323 L 401.2929 559.3323 C 441.6097 559.3323 474.2929 526.64908 474.2929 486.3323 L 474.2929 214.73228 C 474.2929 174.4155 441.6097 141.732285 401.2929 141.732285 L 129.69291 141.732285 C 129.69291 141.732285 129.69291 141.732285 129.69291 141.732285 C 89.37612 141.732285 56.692905 174.4155 56.692912 214.73231 L 56.692912 486.33227 C 56.692912 486.33228 56.692912 486.33228 56.692912 486.3323 Z M 295.2999 321.33556 L 295.2999 321.33556 C 302.38382 323.17425 309.14957 326.55838 315.06235 331.48796 C 317.79265 325.47814 321.62922 319.84798 326.57206 314.90517 C 348.65665 292.82046 384.46282 292.82046 406.54742 314.90517 C 428.63212 336.98976 428.63212 372.79593 406.54742 394.88053 C 384.6387 416.78936 349.22606 416.96383 327.10226 395.40393 C 324.84184 399.48963 321.9783 403.33099 318.51165 406.79762 C 312.47336 412.83593 305.29818 417.04442 297.67513 419.42306 C 317.96609 446.82975 315.69183 485.68925 290.85234 510.5286 C 263.5095 537.87158 219.17806 537.87158 191.83523 510.5286 C 164.49226 483.18578 164.49226 438.85433 191.83523 411.5115 C 204.0697 399.27696 219.70546 392.51673 235.6987 391.23082 C 230.9557 380.41746 230.14576 368.29486 233.26887 357.03435 C 206.79051 360.08797 179.2209 351.45917 158.90977 331.14794 C 123.59638 295.83472 123.59638 238.58074 158.90977 203.26753 C 194.22298 167.95414 251.47697 167.95414 286.79018 203.26753 C 318.993 235.47019 321.82958 285.91856 295.2999 321.33556 Z M 275.21806 427.14578 C 256.50981 408.43743 226.17776 408.43743 207.46951 427.14578 C 188.76116 445.85403 188.76116 476.18607 207.46951 494.89433 C 226.17776 513.60268 256.50981 513.60268 275.21806 494.89433 C 293.92641 476.18607 293.92641 445.85403 275.21806 427.14578 M 391.01334 330.43923 C 377.50798 316.9338 355.61147 316.9338 342.1061 330.43923 C 328.60067 343.9446 328.60067 365.8411 342.1061 379.34646 C 355.61147 392.8519 377.50798 392.8519 391.01334 379.34646 C 404.51878 365.8411 404.51878 343.9446 391.01334 330.43923 M 302.69484 350.27368 C 291.40347 338.98225 273.09655 338.98225 261.80518 350.27368 C 250.51375 361.56505 250.51375 379.87196 261.80518 391.16333 C 273.09655 402.45476 291.40347 402.45476 302.69484 391.16333 C 313.98627 379.87196 313.98627 361.56505 302.69484 350.27368 M 271.1559 218.90181 C 244.47726 192.22304 201.22268 192.22304 174.54405 218.90181 C 147.86528 245.58045 147.86528 288.83502 174.54405 315.51365 C 201.22268 342.19242 244.47726 342.19242 271.1559 315.51365 C 297.83466 288.83502 297.83466 245.58045 271.1559 218.90181" stroke="black" stroke-linecap="round" stroke-linejoin="round" stroke-width=".25"/></g></g></svg>
