/* XPM */
static char * icon1_xpm[] = {
"32 32 535 2",
"  	c None",
". 	c #54577B",
"+ 	c #54558F",
"@ 	c #534F91",
"# 	c #544D90",
"$ 	c #564A90",
"% 	c #57478F",
"& 	c #59448E",
"* 	c #59428D",
"= 	c #5B408C",
"- 	c #5D3E8A",
"; 	c #5E3A89",
"> 	c #5F3888",
", 	c #613587",
"' 	c #623387",
") 	c #633086",
"! 	c #642F85",
"~ 	c #652D85",
"{ 	c #672B84",
"] 	c #682983",
"^ 	c #692682",
"/ 	c #6A2582",
"( 	c #6B2381",
"_ 	c #6C2181",
": 	c #6E1F80",
"< 	c #732983",
"[ 	c #712081",
"} 	c #4E5A97",
"| 	c #4E5694",
"1 	c #505494",
"2 	c #525293",
"3 	c #534F92",
"4 	c #544C91",
"5 	c #56498F",
"6 	c #58438E",
"7 	c #59418D",
"8 	c #5B3E8C",
"9 	c #5C3C8B",
"0 	c #5E3988",
"a 	c #5F3788",
"b 	c #613588",
"c 	c #623388",
"d 	c #633087",
"e 	c #642E86",
"f 	c #652C85",
"g 	c #672A84",
"h 	c #682783",
"i 	c #692582",
"j 	c #6A2381",
"k 	c #6B2181",
"l 	c #6C1F80",
"m 	c #6D1E80",
"n 	c #6D1C7F",
"o 	c #6F1C7F",
"p 	c #4A6099",
"q 	c #4A5B96",
"r 	c #4D5896",
"s 	c #4E5796",
"t 	c #525193",
"u 	c #534E91",
"v 	c #544B91",
"w 	c #574A90",
"x 	c #62568A",
"y 	c #614B93",
"z 	c #6E5D8A",
"A 	c #62458A",
"B 	c #5E3989",
"C 	c #5F3687",
"D 	c #623288",
"E 	c #632F87",
"F 	c #652D86",
"G 	c #662B85",
"H 	c #672984",
"I 	c #6E1D80",
"J 	c #6E1E7F",
"K 	c #6F1B7F",
"L 	c #485977",
"M 	c #48619A",
"N 	c #495E98",
"O 	c #4C5C98",
"P 	c #4E5997",
"Q 	c #4E5795",
"R 	c #515493",
"S 	c #525092",
"T 	c #646188",
"U 	c #62418A",
"V 	c #623488",
"W 	c #633288",
"X 	c #682984",
"Y 	c #682683",
"Z 	c #6A2281",
"` 	c #6E1D7F",
" .	c #6D1B7F",
"..	c #721F80",
"+.	c #476593",
"@.	c #47649B",
"#.	c #49619A",
"$.	c #4B5E99",
"%.	c #4E5896",
"&.	c #4E5695",
"*.	c #676188",
"=.	c #5C508C",
"-.	c #5D4D8D",
";.	c #625289",
">.	c #664788",
",.	c #603688",
"'.	c #623188",
").	c #642F87",
"!.	c #662A84",
"~.	c #682884",
"{.	c #682682",
"].	c #6B2281",
"^.	c #6D1D7F",
"/.	c #43699C",
"(.	c #46679C",
"_.	c #48649B",
":.	c #4A5D98",
"<.	c #4C5A97",
"[.	c #555F9B",
"}.	c #535193",
"|.	c #534C90",
"1.	c #554A91",
"2.	c #564790",
"3.	c #58458E",
"4.	c #66538B",
"5.	c #603B89",
"6.	c #603687",
"7.	c #633188",
"8.	c #642E87",
"9.	c #6A2482",
"0.	c #6C2081",
"a.	c #416B9C",
"b.	c #45699D",
"c.	c #46669C",
"d.	c #485F99",
"e.	c #4D5E96",
"f.	c #505695",
"g.	c #525291",
"h.	c #544D91",
"i.	c #554A90",
"j.	c #574790",
"k.	c #59458E",
"l.	c #6A5989",
"m.	c #5E3788",
"n.	c #682883",
"o.	c #6C2080",
"p.	c #6D1F80",
"q.	c #416E9E",
"r.	c #436C9E",
"s.	c #46659B",
"t.	c #47629A",
"u.	c #546184",
"v.	c #555D85",
"w.	c #4D5796",
"x.	c #505595",
"y.	c #5A428E",
"z.	c #5E3B8A",
"A.	c #6A2481",
"B.	c #3F709F",
"C.	c #426EA0",
"D.	c #436B9E",
"E.	c #45689C",
"F.	c #4C5D95",
"G.	c #534E92",
"H.	c #564990",
"I.	c #58478F",
"J.	c #59438E",
"K.	c #614389",
"L.	c #652E86",
"M.	c #6C2281",
"N.	c #3E73A0",
"O.	c #4171A1",
"P.	c #426E9F",
"Q.	c #426A9C",
"R.	c #4B609A",
"S.	c #4B5B97",
"T.	c #515494",
"U.	c #554B91",
"V.	c #58458F",
"W.	c #5E4991",
"X.	c #604789",
"Y.	c #5D3B8A",
"Z.	c #613488",
"`.	c #3D76A0",
" +	c #3F73A1",
".+	c #4170A1",
"++	c #416D9E",
"@+	c #436A9D",
"#+	c #4B6195",
"$+	c #495D98",
"%+	c #515394",
"&+	c #525093",
"*+	c #544E91",
"=+	c #554B90",
"-+	c #5D468B",
";+	c #5C3E8B",
">+	c #5D3B89",
",+	c #5F3988",
"'+	c #623487",
")+	c #633187",
"!+	c #6A2682",
"~+	c #3B78A1",
"{+	c #3E76A2",
"]+	c #4073A2",
"^+	c #416FA0",
"/+	c #426C9E",
"(+	c #496283",
"_+	c #526282",
":+	c #48609A",
"<+	c #4D5B98",
"[+	c #4F5695",
"}+	c #564B91",
"|+	c #5A438E",
"1+	c #5B418C",
"2+	c #5C3D8B",
"3+	c #603E8A",
"4+	c #634388",
"5+	c #623A89",
"6+	c #623187",
"7+	c #3A7BA2",
"8+	c #3D79A3",
"9+	c #4072A1",
"0+	c #416F9E",
"a+	c #486398",
"b+	c #485F98",
"c+	c #4D5B97",
"d+	c #4F5494",
"e+	c #525392",
"f+	c #524E91",
"g+	c #5C5596",
"h+	c #696187",
"i+	c #58448F",
"j+	c #5C468C",
"k+	c #643688",
"l+	c #652C86",
"m+	c #387DA3",
"n+	c #3B7BA4",
"o+	c #3D78A3",
"p+	c #3F75A2",
"q+	c #3F71A1",
"r+	c #426FA0",
"s+	c #4A6585",
"t+	c #4B6395",
"u+	c #496099",
"v+	c #4B5D98",
"w+	c #4D5A97",
"x+	c #626285",
"y+	c #5E558B",
"z+	c #584890",
"A+	c #62438F",
"B+	c #633489",
"C+	c #377FA4",
"D+	c #3A7EA5",
"E+	c #3C7BA4",
"F+	c #4071A0",
"G+	c #566B85",
"H+	c #505F84",
"I+	c #515C87",
"J+	c #55609B",
"K+	c #695D88",
"L+	c #5B3E8B",
"M+	c #64418E",
"N+	c #765E8C",
"O+	c #662C85",
"P+	c #3681A6",
"Q+	c #3880A6",
"R+	c #3C7AA3",
"S+	c #3D77A2",
"T+	c #3F74A1",
"U+	c #4070A0",
"V+	c #48678F",
"W+	c #585B8D",
"X+	c #57568D",
"Y+	c #584790",
"Z+	c #59448C",
"`+	c #5A418C",
" @	c #5C408B",
".@	c #5E3C8B",
"+@	c #633287",
"@@	c #652E85",
"#@	c #3484A7",
"$@	c #3783A7",
"%@	c #3980A6",
"&@	c #3A7DA5",
"*@	c #3E77A2",
"=@	c #3F73A2",
"-@	c #416C9E",
";@	c #446A9E",
">@	c #496796",
",@	c #4D6288",
"'@	c #4C5F89",
")@	c #505A92",
"!@	c #4E5594",
"~@	c #505392",
"{@	c #574990",
"]@	c #58468F",
"^@	c #5D3F8C",
"/@	c #603789",
"(@	c #623587",
"_@	c #642F86",
":@	c #3387A7",
"<@	c #3685A8",
"[@	c #3B7CA4",
"}@	c #3C79A3",
"|@	c #4270A1",
"1@	c #426C9D",
"2@	c #45669A",
"3@	c #4D5C98",
"4@	c #4E5794",
"5@	c #4F5593",
"6@	c #515293",
"7@	c #5C558A",
"8@	c #554790",
"9@	c #58418D",
"0@	c #655189",
"a@	c #5E3888",
"b@	c #328AA8",
"c@	c #3488A9",
"d@	c #3882A7",
"e@	c #397FA6",
"f@	c #4270A0",
"g@	c #43689C",
"h@	c #515F8B",
"i@	c #4D5695",
"j@	c #515791",
"k@	c #625C85",
"l@	c #5C4F8B",
"m@	c #675C85",
"n@	c #5F438B",
"o@	c #5D3A89",
"p@	c #5F3889",
"q@	c #308DA9",
"r@	c #338BAA",
"s@	c #3684A8",
"t@	c #3881A7",
"u@	c #397FA5",
"v@	c #3F719F",
"w@	c #4E6581",
"x@	c #56619C",
"y@	c #5B5C9A",
"z@	c #62508A",
"A@	c #5B3F8C",
"B@	c #5D3D8B",
"C@	c #5E3A8A",
"D@	c #2E8FAA",
"E@	c #318EAB",
"F@	c #338AAA",
"G@	c #3587A9",
"H@	c #3784A8",
"I@	c #3C77A2",
"J@	c #5B6087",
"K@	c #4F5394",
"L@	c #535392",
"M@	c #5C5986",
"N@	c #5E5A80",
"O@	c #5E5687",
"P@	c #59438D",
"Q@	c #5A418E",
"R@	c #5C3F8C",
"S@	c #5D3C8B",
"T@	c #5F3787",
"U@	c #2D92AC",
"V@	c #3090AC",
"W@	c #328EAB",
"X@	c #348AAA",
"Y@	c #3783A8",
"Z@	c #3881A6",
"`@	c #397DA4",
" #	c #3B7AA3",
".#	c #436FA0",
"+#	c #42699D",
"@#	c #44679C",
"##	c #47659B",
"$#	c #56649D",
"%#	c #4C5896",
"&#	c #505493",
"*#	c #515092",
"=#	c #534D91",
"-#	c #584690",
";#	c #5A418D",
">#	c #5D3B8B",
",#	c #2C95AD",
"'#	c #2F93AD",
")#	c #328DAA",
"!#	c #3489AA",
"~#	c #3586A9",
"{#	c #3B799E",
"]#	c #3F74A2",
"^#	c #406F9E",
"/#	c #426D9D",
"(#	c #436A9C",
"_#	c #45679A",
":#	c #48659C",
"<#	c #4D5D99",
"[#	c #525192",
"}#	c #564890",
"|#	c #5C3E8C",
"1#	c #2A97AE",
"2#	c #2D96AE",
"3#	c #3090AB",
"4#	c #328CAA",
"5#	c #3489A9",
"6#	c #3585A8",
"7#	c #3782A7",
"8#	c #3B6C87",
"9#	c #426A85",
"0#	c #3D76A2",
"a#	c #426D9F",
"b#	c #43699D",
"c#	c #4F6B9F",
"d#	c #4E5E8E",
"e#	c #4C5B98",
"f#	c #544D92",
"g#	c #5A408D",
"h#	c #299AAF",
"i#	c #2B99B0",
"j#	c #2F92AD",
"k#	c #318FAB",
"l#	c #338CAA",
"m#	c #3387A8",
"n#	c #36647B",
"o#	c #3E6E8C",
"p#	c #4073A1",
"q#	c #44699D",
"r#	c #475B7B",
"s#	c #4C5E8B",
"t#	c #4F5595",
"u#	c #574890",
"v#	c #59458F",
"w#	c #59428E",
"x#	c #279CB0",
"y#	c #2A9BB1",
"z#	c #2C98AF",
"A#	c #2E95AE",
"B#	c #2F92AC",
"C#	c #3487A9",
"D#	c #397692",
"E#	c #4183A9",
"F#	c #3A7BA4",
"G#	c #3C78A2",
"H#	c #426B9E",
"I#	c #496294",
"J#	c #4B5D99",
"K#	c #59448F",
"L#	c #5A428D",
"M#	c #269FB1",
"N#	c #299EB2",
"O#	c #2B9BB0",
"P#	c #2F91AC",
"Q#	c #3389A7",
"R#	c #3588A9",
"S#	c #3B7A9E",
"T#	c #3A7AA2",
"U#	c #3E74A1",
"V#	c #476B94",
"W#	c #47669C",
"X#	c #476298",
"Y#	c #4A609A",
"Z#	c #2494A3",
"`#	c #27A0B3",
" $	c #2B9AB0",
".$	c #2C97AF",
"+$	c #2F94AE",
"@$	c #3091AC",
"#$	c #318DAA",
"$$	c #377088",
"%$	c #416F89",
"&$	c #3D789F",
"*$	c #3E759C",
"=$	c #4A6A86",
"-$	c #476790",
";$	c #45689D",
">$	c #47659C",
",$	c #48629A",
"'$	c #4A5F99",
")$	c #4C5D98",
"!$	c #554C91",
"~$	c #5A4B8C",
"{$	c #1A646C",
"]$	c #25A3B3",
"^$	c #279FB3",
"/$	c #299DB2",
"($	c #2F94AD",
"_$	c #318CA9",
":$	c #3389AA",
"<$	c #3C7187",
"[$	c #44678B",
"}$	c #426A9D",
"|$	c #46689D",
"1$	c #544A90",
"2$	c #5C5094",
"3$	c #24A6B4",
"4$	c #259FB0",
"5$	c #279FB2",
"6$	c #2A9DB1",
"7$	c #2D96AF",
"8$	c #328CA9",
"9$	c #3682A2",
"0$	c #3F6B80",
"a$	c #406781",
"b$	c #3E75A0",
"c$	c #3E72A0",
"d$	c #515393",
"e$	c #525090",
"f$	c #554F92",
"g$	c #24A5B3",
"h$	c #25A0B1",
"i$	c #289FB3",
"j$	c #2A9CB1",
"k$	c #2C99B0",
"l$	c #328BA9",
"m$	c #3584A8",
"n$	c #3A7CA4",
"o$	c #436D9F",
"p$	c #446A9D",
"q$	c #4E5494",
"r$	c #535494",
"s$	c #1B666E",
"t$	c #2695A5",
"u$	c #2998AE",
"v$	c #2B96AE",
"w$	c #2D93AC",
"x$	c #2E90AB",
"y$	c #3386A6",
"z$	c #3582A4",
"A$	c #3780A4",
"B$	c #387DA4",
"C$	c #3C78A1",
"D$	c #3D74A0",
"E$	c #44699B",
"F$	c #45659A",
"G$	c #476399",
"H$	c #4A5D97",
"I$	c #505C92",
"J$	c #585E82",
"      . + @ # $ % & * = - ; > , ' ) ! ~ { ] ^ / ( _ : < [       ",
"    } | 1 2 3 4 5 % 6 7 8 9 0 a b c d e f g h i j k l m n o     ",
"  p q r s 1 t u v w x y   z A B C , D E F G H h / j _ l I J K   ",
"L M N O P Q R S T               U C V W E F G X Y / Z _ m `  ...",
"+.@.#.$.O %.&.      *.=.-.;.      >.,.V '.).F !.~.{./ ]._ m ^.< ",
"/.(._.#.:.<.[.    }.|.1.2.3.* 4.    5.6.c 7.8.~ !.~.^ 9.].0.m : ",
"a.b.c._.d.e.    f.g.@ h.i.j.k.7 l.    m., c d e f g n.i 9.].o.p.",
"q.r.b.s.t.u.  v.w.x.2 3 4 $ j.& y.    z.> b c d e f g h i A.k o.",
"B.C.D.E.s.    F.r s 1 t G.4 H.I.J.    K.0 a b D d L.G H h i j M.",
"N.O.P.Q.E.    R.S.P s T.t G.U.5 V.W.  X.Y.B ,.Z.W E F G X Y / A.",
"`. +.+++@+    #+$+O %.&.%+&+*+=+2.    -+;+>+,+,.'+)+).F G X Y !+",
"~+{+]+^+/+(+  _+:+:.<+%.[+%+S # }+    |+1+2+3+4+5+c 6+).~ !.~.h ",
"7+8+{+9+0+r.    a+b+:.c+%.d+e+f+g+  h+i+j+          k+) e l+g ] ",
"m+n+o+p+q+r+s+    t+u+v+w+&.x.x+    y+z+      A+      B+) e f g ",
"C+D+E+o+p+F+P.G+      H+I+J+              K+7 L+Y.M+  N+D ) e O+",
"P+Q+D+R+S+T+U+P.V+              W+X+      Y+Z+`+ @.@    b +@E @@",
"#@$@%@&@R+*@=@U+-@;@>@,@'@    )@!@~@}.    {@]@J.`+^@    /@(@W _@",
":@<@$@%@[@}@{+=@|@1@/.2@_.    3@4@5@6@    7@8@3.9@0@    a@6.V )+",
"b@c@<@d@e@[@8+{+9+f@1@g@(.    h@<.i@j@      k@l@m@    n@o@p@,.' ",
"q@r@c@s@t@u@n+o+p+v@r+w@          x@    y@          z@A@B@C@p@, ",
"D@E@F@G@H@t@D+E+I@p+                  J@K@L@M@N@O@z+P@Q@R@S@C@T@",
"U@V@W@X@G@Y@Z@`@ #      .#+#@###    $#%#[+&#*#=#v 5 -#J.;#R@>#0 ",
",#'#V@)#!#~#$@C+{#    ]#^#/#(#_#:#    <#%.Q T.[#G.U.}#-#J.;#|#>+",
"1#2#'#3#4#5#6#7#8#  9#0#=@.+a#b#(.c#  d#e#%.[+%+S f#U.}#V.J.g#;+",
"h#i#2#j#k#l#m#6#n#  o#}@{+p#|@-@q#r#  s#:.c+%.t#%+3 f#1.u#v#w#= ",
"x#y#z#A#B#k#r@C#D#  E#F#G#p+9+q.H#    I#d.J#w+%.t#2 3 h.i.j.K#L#",
"M#N#O#z#A#P#E@Q#R#    S#T#I@U#q+V#    W#X#Y#v+} s 1 2 3 4 H.j.& ",
"Z#`#N# $.$+$@$#$F@$$    %$&$*$=$    -$;$>$,$'$)$P s 1 t G.!$H.~$",
"{$]$^$/$ $.$($V@_$:$<$            [$a#}$|$##,$'$O P Q T.t *+1$2$",
"  3$4$5$6$i#7$'#3#8$c@9$0$    a$b$c$^+a#;@|$_.#.$.O %.&.d$e$f$  ",
"    g$h$i$j$k$2#j#k#l$:@m$7#u@n$~+{+]+f@o$p$(._.#.$.c+%.q$r$    ",
"      s$t$x#u$v$w$x$q@b@y$z$A$B$7+C$D$v@0+a.E$F$G$b+H$I$J$      "};
